<svg width="16" height="16" viewBox="0 0 16 16" fill="none" xmlns="http://www.w3.org/2000/svg">
<path d="M8.00008 0C3.50008 0 -0.0999191 3.7 8.08653e-05 8.2C0.100081 12.5 3.60008 16 8.00008 16C12.4001 16 16.0001 12.4 16.0001 8C16.0001 3.5 12.4001 0 8.00008 0ZM8.00008 15.2C4.00008 15.2 0.800081 12 0.800081 8C0.800081 4 4.00008 0.8 8.00008 0.8C11.9001 0.8 15.2001 4 15.2001 7.9C15.2001 11.9 12.0001 15.2 8.00008 15.2Z" fill="white"/>
<path d="M5.6001 12C6.4001 11.2 7.2001 10.4 8.0001 9.6C8.8001 10.4 9.6001 11.2 10.4001 12C10.4001 9.3 10.4001 6.7 10.4001 4C8.8001 4 7.2001 4 5.6001 4C5.6001 6.7 5.6001 9.3 5.6001 12Z" fill="white"/>
</svg>
